<?xml version="1.0" encoding="utf-8"?>
<!-- Generator: Adobe Illustrator 27.2.0, SVG Export Plug-In . SVG Version: 6.00 Build 0)  -->
<svg version="1.1" id="vk-tech-en" xmlns="http://www.w3.org/2000/svg" xmlns:xlink="http://www.w3.org/1999/xlink" x="0px" y="0px"
	 width="500px" height="157.6px" viewBox="0 0 500 157.6" style="enable-background:new 0 0 500 157.6;" xml:space="preserve">
<style type="text/css">
	.st0{fill:#0077FF;}
	.st1{fill:#FFFFFF;}
</style>
<g>
	<path class="st0" d="M0,75.7C0,40,0,22.2,11.1,11.1C22.2,0,40,0,75.7,0H82c35.7,0,53.5,0,64.6,11.1c11.1,11.1,11.1,28.9,11.1,64.6
		V82c0,35.7,0,53.5-11.1,64.6c-11.1,11.1-28.9,11.1-64.6,11.1h-6.3c-35.7,0-53.5,0-64.6-11.1C0,135.5,0,117.6,0,82V75.7z"/>
	<path class="st1" d="M83.9,113.6c-35.9,0-56.4-24.6-57.3-65.6h18C45.2,78,58.5,90.8,69,93.4V48h16.9v25.9
		c10.4-1.1,21.3-12.9,25-25.9h16.9c-2.8,16-14.6,27.8-23.1,32.7c8.4,3.9,21.9,14.3,27,32.9h-18.7c-4-12.5-14-22.1-27.2-23.4v23.4
		H83.9z"/>
	<path d="M269.6,108.4l-1.3,13.4h-13c-7.6,0-13.3-1.8-17.3-5.4c-3.9-3.7-5.9-8.9-5.9-15.8V65.5h-11.4V52.1h11.4l3.9-20.1h11.5v20.1
		h20.8v13.4h-20.8v35.1c0,5.2,2.6,7.8,7.8,7.8L269.6,108.4L269.6,108.4z M348.7,86.1c0,1.3-0.1,3-0.3,5h-56
		c0.7,5.4,2.9,9.8,6.7,13.1c3.8,3.2,8.5,4.8,14.3,4.8c3.9,0,7.5-0.8,10.6-2.3c3.2-1.5,5.7-3.6,7.4-6.2l14.5,2.4
		c-2.5,6.4-6.8,11.4-13,14.9c-6.1,3.5-12.9,5.2-20.4,5.2c-7,0-13.2-1.5-18.8-4.6c-5.4-3.1-9.7-7.4-12.9-12.9
		c-3-5.5-4.6-11.8-4.6-18.8c0-7,1.5-13.2,4.6-18.6c3.1-5.5,7.4-9.8,12.9-12.9c5.5-3.1,11.8-4.7,18.8-4.7s13.2,1.6,18.6,4.7
		c5.5,3,9.8,7.3,12.9,12.7C347.1,73.5,348.7,79.5,348.7,86.1z M312.5,64.2c-4.6,0-8.7,1.3-12.2,4c-3.4,2.7-5.7,6.3-7,10.8h38.6
		c-1.3-4.5-3.7-8-7.2-10.7C321.3,65.6,317.2,64.2,312.5,64.2L312.5,64.2z M393,123.1c-7,0-13.2-1.5-18.8-4.6
		c-5.5-3.1-9.9-7.4-13-12.9c-3-5.5-4.6-11.8-4.6-18.8c0-7,1.5-13.2,4.6-18.6c3.1-5.5,7.5-9.8,13-12.9c5.5-3.1,11.8-4.7,18.8-4.7
		c7.7,0,14.5,1.9,20.4,5.8c6,3.8,10.2,9.1,12.7,16.1L411.6,75c-1.5-3-3.9-5.5-7.1-7.4c-3.1-1.9-6.7-2.8-10.6-2.8
		c-6.2,0-11.3,2.1-15.3,6.2c-3.9,4.1-5.9,9.4-5.9,15.9c0,6.5,2,11.8,5.9,15.9c3.9,4.1,9,6.2,15.3,6.2c4.1,0,7.8-0.9,11-2.8
		c3.2-2,5.6-4.5,7.2-7.6l14.5,2.4c-2.5,7.1-6.8,12.5-13,16.3C407.4,121.2,400.5,123.1,393,123.1L393,123.1z M438,121.8V27.3h15.4
		v33.9c2.2-3.3,5.1-5.8,8.7-7.6c3.6-1.9,7.4-2.8,11.4-2.8c5,0,9.5,1.2,13.5,3.7c4,2.5,7.2,5.9,9.5,10.3c2.3,4.4,3.5,9.3,3.5,14.9
		v42.1h-15.4V81.4c0-5-1.4-9.1-4.3-12.2c-2.9-3.1-6.5-4.7-11-4.7c-4.6,0-8.5,1.6-11.5,4.8c-2.9,3.1-4.4,7.1-4.4,12.1v40.3L438,121.8
		L438,121.8z"/>
</g>
</svg>
